# xmcd CD database file
#
# Track frame offsets:
#	150
#	13172
#	25708
#	41688
#	53167
#	63180
#	74730
#	83844
#	96825
#	113571
#
# Disc length: 1641 seconds
#
# Revision: 0
# Processed by: cddbd v1.5.2PL0 Copyright (c) Steve Scherf et al.
# Submitted via: CDex 2.20
#
DISCID=7e06670a
DTITLE=Mloci - 2cec5ka CD2
DYEAR=2009
DGENRE=Country
TTITLE0=ChripkaPrasaca
TTITLE1=FutbalNaTatrane
TTITLE2=UBalvira
TTITLE3=LenSamSebaNepoznam
TTITLE4=PuskaNaKaribu
TTITLE5=NepaktujSeSDochtorami
TTITLE6=ChtoChceChodzicNaMotore
TTITLE7=Kamarat
TTITLE8=ToMojoScesce
TTITLE9=PravidloPravejRuky
EXTD=YEAR: 2009
EXTT0=
EXTT1=
EXTT2=
EXTT3=
EXTT4=
EXTT5=
EXTT6=
EXTT7=
EXTT8=
EXTT9=
PLAYORDER=
